<svg width="24" height="25" viewBox="0 0 24 25" fill="none" xmlns="http://www.w3.org/2000/svg">
<path fill-rule="evenodd" clip-rule="evenodd" d="M23.9149 3.80856C23.9149 2.16345 22.5813 0.829834 20.9362 0.829834H3.06383C1.41873 0.829834 0.0851059 2.16345 0.0851059 3.80856V15.7235C0.0851059 17.3686 1.41873 18.7022 3.06383 18.7022H17.3405C17.7355 18.7022 18.1144 18.8591 18.3937 19.1384L22.6436 23.3884C23.1128 23.8575 23.9149 23.5252 23.9149 22.8618V3.80856ZM7.53191 9.766C7.53191 10.5886 6.8651 11.2554 6.04255 11.2554C5.22 11.2554 4.55319 10.5886 4.55319 9.766C4.55319 8.94345 5.22 8.27664 6.04255 8.27664C6.8651 8.27664 7.53191 8.94345 7.53191 9.766ZM13.4894 9.766C13.4894 10.5886 12.8226 11.2554 12 11.2554C11.1774 11.2554 10.5106 10.5886 10.5106 9.766C10.5106 8.94345 11.1774 8.27664 12 8.27664C12.8226 8.27664 13.4894 8.94345 13.4894 9.766ZM17.9574 11.2554C18.78 11.2554 19.4468 10.5886 19.4468 9.766C19.4468 8.94345 18.78 8.27664 17.9574 8.27664C17.1349 8.27664 16.4681 8.94345 16.4681 9.766C16.4681 10.5886 17.1349 11.2554 17.9574 11.2554Z" fill="white"/>
</svg>
