<svg width="500" height="500" viewBox="0 0 500 500" fill="none" xmlns="http://www.w3.org/2000/svg">
<rect width="500" height="500" fill="#FAFBFB"/>
<path d="M472.593 148.519C466.296 137.824 456.157 129.398 444.444 125.278C439.398 123.519 433.333 122.685 429.213 126.065C425.093 129.445 426.528 138.102 431.852 137.963C415.417 126.574 395.602 120.139 375.602 119.63C370.602 119.491 364.907 120.046 361.759 123.935C358.565 127.824 361.25 135.509 366.157 134.63C351.065 124.954 331.157 127.917 314.259 133.935C309.352 135.695 304.491 137.639 299.63 139.583C294.306 141.713 295.88 149.63 301.62 149.583L472.593 148.519ZM43.1018 93.3335C36.8055 94.8613 30.4166 89.6298 31.7592 85.2316C33.1018 80.8335 39.2129 77.8242 45.3703 76.0187C59.3055 71.9446 75.8333 71.9909 89.7222 76.1576C86.4814 74.4909 86.7592 70.9724 89.3055 68.889C91.8981 66.8057 96.0185 65.8798 100 65.3705C118.981 62.9631 139.768 68.5187 150.926 79.0742C147.268 76.4816 149.259 71.852 153.657 69.9076C158.055 67.9631 163.889 67.9631 169.12 68.6113C191.62 71.2964 210.694 79.4909 215 94.4909L43.1018 93.3335Z" fill="#CCE9FF"/>
<path d="M32.8704 444.259C50.9722 409.445 70.8796 375.556 92.5 342.824C101.204 329.63 111.019 315.926 125.648 309.861C138.472 304.537 153.472 306.111 166.111 311.945C178.704 317.778 189.167 327.546 197.824 338.426C205.278 347.732 213.241 358.935 225.139 359.908C237.824 360.972 247.87 349.861 255.694 339.769C281.389 306.667 307.083 273.519 332.778 240.417C341.296 229.445 351.806 217.454 365.648 217.5C378.056 217.546 388.102 227.361 395.833 237.083C441.204 293.982 458.889 367.454 475.324 438.287L32.8704 444.259Z" fill="#B8BBBD" fill-opacity="0.25"/>
<path d="M452.5 378.287C470.807 378.287 485.648 363.446 485.648 345.139C485.648 326.832 470.807 311.991 452.5 311.991C434.193 311.991 419.352 326.832 419.352 345.139C419.352 363.446 434.193 378.287 452.5 378.287Z" fill="#4C9926"/>
<path d="M452.315 436.62C451.806 436.528 451.481 436.065 451.481 435.556V355.324C451.481 354.769 451.898 354.259 452.454 354.259C453.056 354.213 453.518 354.676 453.518 355.278V435.648C453.518 436.25 452.963 436.759 452.315 436.62Z" fill="#B6EAFF"/>
<path d="M452.5 361.991C452.222 361.991 451.991 361.898 451.759 361.713C451.343 361.296 451.343 360.648 451.759 360.278L460.833 351.204C461.25 350.787 461.898 350.787 462.269 351.204C462.685 351.62 462.685 352.268 462.269 352.639L453.241 361.713C453.009 361.898 452.778 361.991 452.5 361.991ZM452.5 370.417C452.222 370.417 451.991 370.324 451.759 370.139C451.343 369.722 451.343 369.074 451.759 368.704L460.833 359.63C461.25 359.213 461.898 359.213 462.269 359.63C462.685 360.046 462.685 360.694 462.269 361.065L453.241 370.139C453.009 370.324 452.778 370.417 452.5 370.417Z" fill="#B6EAFF"/>
<path d="M71.9908 382.269C100.347 382.269 123.333 359.282 123.333 330.926C123.333 302.57 100.347 279.583 71.9908 279.583C43.6351 279.583 20.6482 302.57 20.6482 330.926C20.6482 359.282 43.6351 382.269 71.9908 382.269Z" fill="#8FCC69"/>
<path d="M71.9908 432.361C71.3426 432.361 70.8334 431.852 70.8334 431.204V330.926C70.8334 330.278 71.3426 329.769 71.9908 329.769C72.6389 329.769 73.1482 330.278 73.1482 330.926V431.157C73.1945 431.806 72.6389 432.361 71.9908 432.361Z" fill="#4C9926"/>
<path d="M71.9908 358.657C71.713 358.657 71.3889 358.565 71.1574 358.333L56.8056 343.981C56.3426 343.518 56.3426 342.778 56.8056 342.315C57.2686 341.852 58.0093 341.852 58.4723 342.315L72.8241 356.713C73.2871 357.176 73.2871 357.917 72.8241 358.38C72.5926 358.565 72.3149 358.657 71.9908 358.657ZM71.9908 372.037C71.713 372.037 71.3889 371.944 71.1574 371.713L56.8056 357.361C56.3426 356.898 56.3426 356.157 56.8056 355.694C57.2686 355.231 58.0093 355.231 58.4723 355.694L72.8241 370.046C73.2871 370.509 73.2871 371.25 72.8241 371.713C72.5926 371.898 72.3149 372.037 71.9908 372.037Z" fill="#CCEEFF"/>
<path d="M41.4352 426.898H466.759C473.472 426.898 478.889 432.315 478.889 439.028V454.213C478.889 460.926 473.472 466.343 466.759 466.343H41.4352C34.7222 466.343 29.3055 460.926 29.3055 454.213V439.028C29.3055 432.361 34.7222 426.898 41.4352 426.898Z" fill="#F2F2F2"/>
<path d="M329.722 222.639C368.74 222.639 400.37 191.009 400.37 151.991C400.37 112.973 368.74 81.3428 329.722 81.3428C290.704 81.3428 259.074 112.973 259.074 151.991C259.074 191.009 290.704 222.639 329.722 222.639Z" stroke="#4C9926" stroke-width="3" stroke-miterlimit="10"/>
<path d="M318.704 233.657C333.287 240.787 329.028 254.444 329.028 254.444C329.028 254.444 320.88 266.204 306.25 259.074C291.667 251.944 276.157 228.611 276.157 228.611C276.157 228.611 304.12 226.528 318.704 233.657Z" fill="#4C9926"/>
<path d="M318.704 233.657C333.287 240.787 329.028 254.444 329.028 254.444L276.157 228.611C276.157 228.611 304.12 226.528 318.704 233.657Z" fill="#94B068"/>
<path d="M341.944 310.092C327.361 317.222 331.62 330.879 331.62 330.879C331.62 330.879 339.769 342.639 354.398 335.509C368.981 328.379 384.491 305.046 384.491 305.046C384.491 305.046 356.574 302.963 341.944 310.092Z" fill="#4C9926"/>
<path d="M341.944 310.092C327.361 317.222 331.62 330.879 331.62 330.879L384.491 305.046C384.491 305.046 356.574 302.963 341.944 310.092ZM375.694 431.62C357.13 454.815 329.028 444.259 329.028 444.259C329.028 444.259 312.546 419.167 331.111 395.926C349.676 372.685 401.389 353.75 401.389 353.75C401.389 353.75 394.259 408.379 375.694 431.62Z" fill="#8FCC69"/>
<path d="M375.694 431.62C357.13 454.815 329.028 444.259 329.028 444.259L401.389 353.75C401.389 353.75 394.259 408.38 375.694 431.62Z" fill="#4C9926"/>
<path d="M284.074 431.62C302.639 454.815 330.741 444.259 330.741 444.259C330.741 444.259 347.222 419.167 328.657 395.926C310.093 372.731 258.38 353.75 258.38 353.75C258.38 353.75 265.509 408.38 284.074 431.62Z" fill="#86AC54"/>
<path d="M284.074 431.62C302.639 454.815 330.741 444.259 330.741 444.259L258.38 353.75C258.38 353.75 265.509 408.38 284.074 431.62Z" fill="#4C9926"/>
<path d="M237.407 249.074L224.12 253.333L222.176 252.407L218.426 248.704L218.796 242.639L226.157 242.454L237.407 249.074Z" fill="#FCD2B1"/>
<path d="M193.148 171.296C193.148 171.296 188.611 223.704 226.111 242.454C224.583 244.259 218.287 247.13 218.287 247.13C218.287 247.13 181.574 224.861 182.87 200.139C184.167 175.417 193.148 171.296 193.148 171.296Z" fill="#94B068"/>
<path d="M122.083 410.231C122.083 410.231 126.991 432.917 130.602 443.148C131.018 444.352 129.491 445.324 128.611 444.444C122.546 438.472 114.12 426.389 111.343 423.611C107.87 420.139 102.546 413.657 102.546 413.657L115.278 402.454L123.657 406.667L122.083 410.231Z" fill="#12B76A"/>
<path d="M167.639 426.898C167.639 426.898 187.87 438.194 197.963 442.315C199.167 442.824 198.889 444.583 197.593 444.676C189.12 445.278 174.444 443.611 170.556 443.843C165.694 444.167 157.269 443.843 157.269 443.843V426.898L165.972 423.38L167.639 426.898Z" fill="#12B76A"/>
<path d="M188.148 230.694C188.148 230.694 186.204 331.944 185.093 334.213C183.982 336.435 167.639 426.944 167.639 426.944H157.269C157.269 426.944 159.12 332.361 163.194 328.842C163.194 320.509 160.37 231.528 168.287 225.185C179.861 224.491 188.148 230.694 188.148 230.694Z" fill="#27272E"/>
<path d="M153.056 220.926C138.102 231.944 135.093 283.426 150.324 323.194C140.37 341.065 110.602 411.944 110.602 411.944L119.398 417.222C119.398 417.222 180.093 333.75 177.778 325.139C175.463 316.528 179.861 224.444 179.861 224.444L153.056 220.926Z" fill="#27272E"/>
<path d="M195.972 159.676C196.296 160.926 196.713 162.176 197.222 163.38C200.463 171.065 204.907 186.945 204.583 189.583C204.213 192.454 194.074 202.222 191.389 209.676C188.704 217.13 188.241 230.695 188.241 230.695L153.148 220.926C153.148 220.926 162.917 196.852 163.287 185.972C163.657 175.093 167.407 152.593 181.25 150.324C191.806 148.565 195.046 156.157 195.972 159.676Z" fill="#F2F4F7"/>
<path d="M206.667 113.75C207.315 112.13 207.083 110.278 206.065 108.843C200.787 101.667 191.296 97.6388 182.5 99.2129C172.732 100.972 164.537 109.398 163.056 119.213C162.5 123.009 162.824 126.898 162.037 130.648C161.111 135.046 158.565 139.12 155 141.852C150.556 145.278 144.815 146.574 139.861 149.259C134.861 151.991 130.741 156.065 127.222 160.555C123.704 165.046 120.648 170.093 119.676 175.741C118.704 181.389 120.093 187.639 124.306 191.481C126.991 193.935 130.463 195.185 133.889 196.343C140.741 198.657 147.917 200.741 155.093 199.954C162.269 199.167 169.537 194.907 171.759 188.009C174.861 178.287 167.222 168.055 168.611 157.963C169.583 151.111 174.583 145.463 180.139 141.343C185.694 137.222 191.991 134.074 197.269 129.63C201.204 126.343 204.954 117.917 206.667 113.75Z" fill="#27272E"/>
<path d="M197.176 142.824C195.417 146.435 193.796 155.926 195.324 159.954C196.713 163.935 196.204 164.583 196.204 164.583L180.787 151.945L184.352 134.583L197.176 142.824Z" fill="#FCD2B1"/>
<path d="M209.722 128.241C209.722 137.176 207.407 146.296 200 146.296C192.593 146.296 182.87 137.176 182.87 128.241C182.87 119.306 188.889 112.037 196.296 112.037C203.704 112.037 209.722 119.306 209.722 128.241Z" fill="#FFE3CA"/>
<path d="M208.935 110.417C211.574 110.185 213.38 113.009 212.083 115.278C209.537 119.861 205 124.444 194.444 123.148C189.63 122.546 181.944 123.148 181.482 126.389L177.778 117.593C177.778 117.593 178.704 112.037 179.63 112.037H189.722L208.935 110.417Z" fill="#0B4870"/>
<path d="M188.889 122.222C187.5 125 186.759 129.954 184.907 130.88C182.593 129.537 179.722 122.546 179.907 122.593C180.093 122.639 182.407 121.25 182.87 121.25C183.333 121.25 188.889 122.222 188.889 122.222Z" fill="#0B4870"/>
<path d="M185.416 135.323C186.722 134.736 187.016 132.558 186.073 130.459C185.13 128.36 183.306 127.135 182 127.721C180.694 128.308 180.4 130.486 181.344 132.585C182.287 134.684 184.11 135.909 185.416 135.323Z" fill="#FFE3CA"/>
<path d="M184.213 138.241C185.543 138.241 186.62 137.163 186.62 135.833C186.62 134.504 185.543 133.426 184.213 133.426C182.883 133.426 181.806 134.504 181.806 135.833C181.806 137.163 182.883 138.241 184.213 138.241Z" fill="#FFBE55"/>
<path d="M222.13 302.222L193.38 276.805C192.361 275.926 192.268 274.352 193.148 273.333L210.972 251.342C211.852 250.324 213.426 250.231 214.444 251.111L245 278.102C246.018 278.981 246.111 280.555 245.231 281.574L225.602 301.991C224.676 303.009 223.148 303.102 222.13 302.222Z" fill="#4C9926"/>
<path d="M250.417 310.417L224.12 298.241L230.926 290.37L252.593 304.769L252.917 305L250.417 310.417ZM239.861 252.593C243.102 255.37 244.167 260.509 242.824 267.083L240.417 278.982L213.611 255.787L225.463 251.667C231.574 249.491 236.667 249.815 239.861 252.593ZM241.389 250.833C237.685 247.639 231.852 246.945 224.676 249.445L209.074 254.907L241.944 283.287L245.139 267.5C246.667 259.861 245.139 254.074 241.389 250.833Z" fill="#4C9926"/>
<path d="M250.417 310.417C248.75 307.315 250.463 305.648 252.593 304.769L252.917 305L250.417 310.417Z" fill="#2286D1"/>
<path d="M173.333 162.963C172.685 183.981 181.204 237.87 197.176 259.12C199.907 257.685 202.87 256.065 202.87 256.065C202.87 256.065 182.5 209.213 189.028 169.861C189.722 165 189.028 161.528 187.546 159.12C183.657 152.593 173.565 155.417 173.333 162.963Z" fill="#94B068"/>
<path d="M197.176 259.167C197.176 259.167 201.759 268.658 202.87 269.676C203.935 270.695 211.806 274.908 214.028 275.741C216.25 276.528 211.018 271.759 211.018 271.759C211.018 271.759 215.093 274.352 216.991 275.371C217.269 275.509 217.5 275.185 217.315 274.954C215.88 273.241 212.361 270.463 212.361 270.463C212.361 270.463 217.87 273.75 220.324 275.046C220.602 275.185 220.833 274.861 220.648 274.63C218.889 272.963 214.907 269.861 214.213 269.491C217.13 270.741 219.213 271.945 220.509 272.546C220.694 272.639 220.833 272.408 220.694 272.269C218.148 269.954 207.315 262.269 206.759 262.13C204.537 261.621 202.454 256.343 202.454 256.343L197.176 259.167Z" fill="#FCD2B1"/>
<path d="M224.12 253.333L222.176 252.407L221.944 252.083C221.944 252.083 227.176 246.759 228.519 246.157C229.398 245.787 233.102 247.222 235.463 248.194C236.157 248.472 236.111 249.491 235.37 249.722L224.12 253.333Z" fill="#FFE4D2"/>
<path d="M328.38 190.371H331.065V444.815H328.38V190.371Z" fill="#2A94F4"/>
<path d="M279.63 87.685C273.935 87.685 269.352 92.3146 269.352 97.9628C269.352 92.2683 264.722 87.685 259.074 87.685C264.769 87.685 269.352 83.0554 269.352 77.4072C269.306 83.0554 273.935 87.685 279.63 87.685Z" fill="#FFBE55"/>
<path d="M284.537 87.6851C276.111 87.6851 269.306 94.4907 269.306 102.917C269.306 94.4907 262.5 87.6851 254.074 87.6851C262.5 87.6851 269.306 80.8795 269.306 72.4536C269.306 80.8795 276.157 87.6851 284.537 87.6851Z" stroke="#FFBE55" stroke-miterlimit="10"/>
<path d="M414.398 171.297C411.111 171.297 408.426 173.982 408.426 177.222C408.426 173.935 405.741 171.297 402.5 171.297C405.787 171.297 408.426 168.611 408.426 165.371C408.426 168.611 411.111 171.297 414.398 171.297Z" fill="#FFBE55"/>
<path d="M417.222 171.296C412.361 171.296 408.426 175.231 408.426 180.093C408.426 175.231 404.491 171.296 399.63 171.296C404.491 171.296 408.426 167.361 408.426 162.5C408.426 167.361 412.361 171.296 417.222 171.296Z" stroke="#FFBE55" stroke-width="0.75" stroke-miterlimit="10"/>
<path d="M256.481 307.593L320.787 337.824M252.917 313.519L294.583 393.056M265.972 321.296L320.787 393.056M278.657 326.528L322.268 359.491" stroke="#CCE9FF" stroke-miterlimit="10" stroke-dasharray="12 14"/>
<path d="M319.352 198.981H339.861V209.213C339.861 214.861 335.278 219.444 329.63 219.444C323.981 219.444 319.398 214.861 319.398 209.213V198.981H319.352Z" fill="#0E538C"/>
<path d="M329.722 209.491C361.479 209.491 387.222 183.747 387.222 151.991C387.222 120.234 361.479 94.4907 329.722 94.4907C297.966 94.4907 272.222 120.234 272.222 151.991C272.222 183.747 297.966 209.491 329.722 209.491Z" fill="#94B068"/>
<path d="M329.722 195.139C353.552 195.139 372.87 175.821 372.87 151.991C372.87 128.161 353.552 108.843 329.722 108.843C305.892 108.843 286.574 128.161 286.574 151.991C286.574 175.821 305.892 195.139 329.722 195.139Z" stroke="#F7F7F7" stroke-miterlimit="10"/>
<path d="M331.852 133.704C335.741 134.444 338.056 137.361 338.056 141.991V142.731L332.685 143.241V142.407C332.685 139.815 331.759 138.611 329.722 138.611C328.056 138.611 326.898 139.63 326.898 141.713V142.407C326.898 144.444 328.009 146.157 331.62 149.444C336.574 154.028 338.287 156.991 338.287 160.972V161.852C338.287 166.481 335.787 169.305 331.852 170V173.843H327.454V170C323.565 169.167 321.111 166.25 321.111 161.713V159.63L326.481 159.12V161.343C326.481 163.935 327.546 165.139 329.722 165.139C331.343 165.139 332.778 164.12 332.778 162.037V161.25C332.778 159.213 331.667 157.5 328.056 154.213C323.102 149.63 321.389 146.667 321.389 142.685V141.898C321.389 137.315 323.657 134.491 327.5 133.75V130.463H331.898V133.704H331.852Z" fill="#F7F7F7"/>
</svg>
